<?xml version="1.0" encoding="UTF-8"?>
<svg id="Layer_3" data-name="Layer 3" xmlns="http://www.w3.org/2000/svg" viewBox="0 0 800 800">
  <defs>
    <style>
      .cls-1 {
        fill: #f58020;
      }

      .cls-1, .cls-2 {
        stroke-width: 0px;
      }

      .cls-2 {
        fill: #231f20;
      }

      .cls-3 {
        fill: none;
        stroke: #231f20;
        stroke-linecap: round;
        stroke-miterlimit: 10;
        stroke-width: 25px;
      }
    </style>
  </defs>
  <g id="Findme">
    <path class="cls-2" d="m467.92,312.2c-8.39,8.63-20.08,14.04-33.03,14.2-26.26.31-47.37-20.46-47.44-46.73-.02-7.71,1.82-14.98,5.1-21.4s-1.39-14.11-8.59-14.12c-.06,0-.12,0-.19,0-58.96,0-106.66,48.21-105.84,107.36s47.32,103.54,104.33,104.33c59.15.82,107.36-46.88,107.36-105.84,0-11.94-1.98-23.42-5.62-34.13-2.31-6.78-11.08-8.8-16.07-3.67Z"/>
    <path class="cls-2" d="m383.59,169.76c-97.16.09-177.33,78.09-180,175.21-.47,16.97,1.44,33.44,5.39,49.09,2.38,9.41,14.1,12.65,20.96,5.79h0c3.1-3.1,4.36-7.6,3.29-11.84-3.5-13.83-5.14-28.39-4.62-43.4,2.85-83.35,71.98-149.97,155.38-149.85,85.67.12,155.29,70,155.01,155.76-.27,83.86-67.88,152.83-151.72,154.69-26.06.58-50.73-5.3-72.5-16.15-4.83-2.41-10.65-1.51-14.47,2.31h0c-6.01,6.01-4.43,16.18,3.17,19.98,24.19,12.09,51.45,18.9,80.28,18.9,99.39,0,180.25-80.86,180.25-180.25s-80.95-180.34-180.42-180.24Z"/>
    <line class="cls-3" x1="498.81" y1="477.3" x2="543.62" y2="522.11"/>
    <circle class="cls-2" cx="587.15" cy="565.64" r="27.32"/>
  </g>
  <g id="Findme">
    <path class="cls-2" d="m215.21,618.81h48.5v15.83h-28.61v12.58h21.11v15.12h-21.11v28.01h-19.89v-71.54Z"/>
    <path class="cls-1" d="m272.99,636.47l18.25-7.91,21.25,60.63-15.1-.11-24.39-52.61Z"/>
    <circle class="cls-1" cx="278.7" cy="621.99" r="9.12"/>
    <path class="cls-2" d="m363.64,618.81v71.54h-19.89l-26.48-39.98v39.98h-19.89v-71.54h19.89l26.48,40.49v-40.49h19.89Z"/>
    <path class="cls-2" d="m440.66,654.53c0,20.7-14.51,35.82-37.34,35.82h-28.31v-71.54h28.31c22.83,0,37.34,14.71,37.34,35.72Zm-38.86,18.26c11.47,0,18.67-6.49,18.67-18.26s-7.21-18.47-18.67-18.47h-6.9v36.73h6.9Z"/>
    <path class="cls-2" d="m446.52,618.81h24.05l17.96,46.47,17.55-46.47h23.95v71.54h-19.89v-39.47l-13.5,39.47h-16.64l-13.6-39.78v39.78h-19.89v-71.54Z"/>
    <path class="cls-2" d="m587.15,634.74h-25.88v11.67h22.83v15.12h-22.83v12.89h25.88v15.93h-45.76v-71.54h45.76v15.93Z"/>
  </g>
</svg>